<?xml version="1.0" encoding="utf-8"?>
<!-- Generator: Adobe Illustrator 24.3.0, SVG Export Plug-In . SVG Version: 6.00 Build 0)  -->
<svg version="1.1" xmlns="http://www.w3.org/2000/svg" xmlns:xlink="http://www.w3.org/1999/xlink" x="0px" y="0px"
	 viewBox="0 0 1236.8 754.5" style="enable-background:new 0 0 1236.8 754.5;" xml:space="preserve">
<style type="text/css">
	.st0{display:none;fill:#D20A11;}
	.st1{fill:#CED4DA;}
	.st2{display:none;}
	.st3{display:inline;fill:#FFFFFF;}
</style>
<g id="Layer_1">
	<path class="st0" d="M-205.3-872.9h2500v2500h-2500V-872.9z"/>
	<path class="st1" d="M273.2,619.9c43.6,32.5,127.9,74.4,191.8,68.4c5.5,6.6,7.2,13.2,5,22.1c-2.8,9.9-9.9,16-19.8,16.5
		c-87.1-5.5-161-52.9-206.2-89.3c0,0-93.7-82.1-100.3-168.1c-12.1-104.7,62.8-161,153.3-217.2c29.8-18.2,83.2-40.8,83.8-40.2
		c0,0.6-39.7,27.6-71.1,49.6C208.7,330,170.1,390.1,174.5,466.7C183.3,560.9,273.2,619.9,273.2,619.9L273.2,619.9z M1079.7,215.9
		h-45.2l22.6-69.5L1079.7,215.9z"/>
	<path class="st1" d="M612.2,27.9c11.6,14.9,14.3,36.4,0.6,57.3c-19.8,28.7-85.4,38.6-84.3,67.3c1.1,28.7,54.6,6.1,57.3,55.7
		c2.8,45.2-61.7,63.9-94.3,61.7c-28.1-2.2-82.7-5.5-86.5,7.2c0,1.1-0.6,2.2-0.6,3.3v4.4c0.6,15.4,59,1.1,57.9,52.4
		c-0.6,49.1-84.9,56.8-149.4,61.2c-22.6,1.7-26.5,14.9-27,20.9c-1.7,20.9,10.5,28.1,42.4,28.1c13.8,0,27,3.3,33.1,11.6
		c6.6,8.3,8.8,19.8,7.2,32c-7.2,46.9-50.7,97.6-89.9,128.4h930.5V27.9H612.2z M874.1,112.8h91.5v26.5h-58.4v41.9h55.7v26.5h-55.7
		v73.9h-33.1V112.8z M703.2,112.8h65c23.7,0,60.1,6.1,60.1,43.6c0,19.8-14.9,34.2-36.9,38v0.6c25.4,2.2,42.4,17.6,42.4,38.6
		c0,42.4-41.9,49.1-65.6,49.1h-65V112.8L703.2,112.8z M745.6,535h-42.4V365.8h42.4c47.4,0,89.3,17.6,89.3,84.3S792.5,535,745.6,535z
		 M965.6,392.8h-58.4v41.9h55.7v26.5h-55.7V535h-33.1V365.8h91.5V392.8z M1067.6,535h-65V365.8h65c24.3,0,60.1,6.1,60.1,43.6
		c0,19.8-14.9,34.2-36.9,38v0.6c25.4,2.2,42.4,17.6,42.4,38.6C1133.2,528.4,1091.3,535,1067.6,535z M1101.8,281.5l-13.2-38.6h-62.8
		l-13.8,38.6h-32l60.6-169.2h35.3l60.6,169.2H1101.8z"/>
	<path class="st1" d="M740.7,139.2H755c17.1,0,35.8,1.7,35.8,20.9c0,17.6-19.3,20.4-35.3,20.4h-15.4v-41.3H740.7z M740.7,205.9h17.6
		c18.7,0,38.6,3.3,38.6,25.4c0,19.8-20.9,23.7-38.6,23.7h-17.6V205.9L740.7,205.9z M734.1,392.8h17.1c25.9,0,50.7,20.9,50.7,57.9
		s-24.8,57.9-50.7,57.9h-17.1V392.8z M1090.2,413.8c0-19.8-18.7-20.9-35.8-20.9H1040v41.9h15.4
		C1070.9,434.2,1090.2,430.8,1090.2,413.8z M1057.7,459.5H1040v49.1h17.6c17.1,0,38.6-3.9,38.6-23.7
		C1095.7,462.8,1076.4,459.5,1057.7,459.5L1057.7,459.5z"/>
	<path class="st1" d="M129.9,262.7c34.2,4.4,50.7,1.1,61.7-9.9c13.2-12.1,13.8-32.5,14.9-63.4c1.7-55.7,58.4-66.7,78.8-46.3
		c32,31.4,57.9-14.3,65-40.8c9.9-37.5,24.8-75,66.7-72.2c19.3,1.1,33.1,18.7,36.4,38c2.2,11,7.7,19.8,19.8,20.9
		c9.9,1.1,22.6-6.6,48-41.3c6.1-7.7,11.6-14.3,16.5-19.8H27.3v321.4C38.9,289.7,80.3,256.6,129.9,262.7L129.9,262.7z M31.2,444.6
		c-1.7-7.2-3.3-14.3-4.4-20.9v196.3h170.3C126.6,582.4,50.5,522.9,31.2,444.6z"/>
</g>
<g id="Capa_2" class="st2">
	<polygon class="st3" points="1286.4,281.5 1304.1,281.5 1311.2,262.2 1346,262.2 1353.1,281.5 1371.9,281.5 1338.3,196.6 
		1319,196.6 	"/>
	<polygon class="st3" points="1341.6,248.4 1316.8,248.4 1328.9,213.1 	"/>
	<rect x="1377.9" y="189.9" class="st3" width="16.5" height="91.5"/>
	<path class="st3" d="M1446.3,281.5h16v-91.5h-16.5v35.8c-5-6.1-10.5-8.8-18.7-8.8c-19.3,0-26.5,15.4-26.5,32.5
		c0,17.1,7.2,33.1,26.5,33.1c7.7,0,14.3-2.2,19.3-8.3V281.5L1446.3,281.5z"/>
	<path class="st3" d="M1417.6,250c0-8.3,2.8-19.8,13.8-19.8c10.5,0,14.9,11,14.9,19.8c0,8.8-3.3,20.4-14.3,20.4
		S1417.6,258.3,1417.6,250z"/>
	<path class="st3" d="M1528.4,218.6h-16.5v30.9c0,8.3-2.8,20.9-14.3,20.9c-10.5,0-10.5-10.5-10.5-18.2v-33.6h-16.5v39.7
		c0,14.3,6.6,24.8,21.5,24.8c8.3,0,15.4-3.9,20.4-9.9v8.3h15.4v-62.8H1528.4z"/>
	<path class="st3" d="M1536.2,281.5h16.5v-30.9c0-8.3,2.8-20.9,14.3-20.9c10.5,0,10.5,10.5,10.5,18.2v33.6h16.5v-39.7
		c0-14.3-6.6-24.8-21.5-24.8c-8.3,0-15.4,2.8-20.4,9.9v-8.3h-15.4v62.8H1536.2z"/>
	<path class="st3" d="M1646.4,281.5h16v-91.5h-16.5v35.8c-5-6.1-10.5-8.8-18.7-8.8c-19.3,0-26.5,15.4-26.5,32.5
		c0,17.1,7.2,33.1,26.5,33.1c7.7,0,14.3-2.2,19.3-8.3V281.5L1646.4,281.5z"/>
	<path class="st3" d="M1617.7,250c0-8.3,2.8-19.8,13.8-19.8c10.5,0,14.9,11,14.9,19.8c0,8.8-3.3,20.4-14.3,20.4
		C1621.1,270.4,1617.7,258.3,1617.7,250z"/>
	<rect x="1670.7" y="191.6" class="st3" width="16.5" height="15.4"/>
	<rect x="1670.7" y="218.6" class="st3" width="16.5" height="62.8"/>
	<path class="st3" d="M1707.6,263.3c0-9.4,11-11,18.2-11h7.2c0,5-0.6,9.4-3.3,12.7c-2.8,3.3-6.6,5.5-11.6,5.5
		C1712,271,1707.6,268.8,1707.6,263.3L1707.6,263.3z"/>
	<path class="st3" d="M1699.3,235.7c5.5-4.4,12.7-6.6,19.3-6.6c9.4,0,14.3,3.3,14.3,13.8h-8.8c-6.6,0-14.9,0.6-20.9,3.9
		c-6.1,3.3-10.5,8.8-10.5,18.2c0,12.1,11,18.7,22.1,18.7c7.7,0,15.4-3.9,19.3-11c0,2.2,0,6.1,0.6,9.4h14.3c-0.6-5-0.6-9.4-0.6-13.8
		V244c0-18.7-7.7-26.5-27-26.5c-7.2,0-15.4,1.7-22.1,5L1699.3,235.7L1699.3,235.7z"/>
	<path class="st3" d="M1294.2,175.1h29.8c10.5,0,29.8-3.3,29.8-24.8c0-10.5-7.7-18.2-19.3-19.3c9.9-1.7,17.1-8.8,17.1-18.7
		c0-18.7-16.5-22.1-27.6-22.1h-29.8V175.1z"/>
	<path class="st3" d="M1311.2,103.4h6.6c7.7,0,16.5,0.6,16.5,10.5c0,8.8-8.8,10.5-16,10.5h-7.2L1311.2,103.4L1311.2,103.4z"/>
	<path class="st3" d="M1311.2,137.6h8.3c8.3,0,17.6,1.7,17.6,12.7c0,9.9-9.4,11.6-17.6,11.6h-8.3V137.6L1311.2,137.6z"/>
	<rect x="1359.8" y="85.8" class="st3" width="16.5" height="15.4"/>
	<rect x="1359.8" y="112.2" class="st3" width="16.5" height="62.8"/>
	<polygon class="st3" points="1384,125.4 1414.3,125.4 1382.9,161.8 1382.9,175.1 1434.7,175.1 1434.7,162.4 1402.8,162.4 
		1433.6,126 1433.6,112.8 1384,112.8 	"/>
	<polygon class="st3" points="1441.9,175.1 1458.4,175.1 1458.4,144.7 1479.4,175.1 1500.3,175.1 1473.9,140.3 1497.6,112.8 
		1478.3,112.8 1458.4,137.6 1458.4,84.1 1441.9,84.1 	"/>
	<path class="st3" d="M1512.5,157.4c0-9.4,11-11,18.2-11h7.2c0,5-0.6,9.4-3.3,12.7c-2.8,3.3-6.6,5.5-11.6,5.5
		C1516.9,164.6,1512.5,162.4,1512.5,157.4L1512.5,157.4z M1504.2,129.9c5.5-4.4,12.7-6.6,19.3-6.6c9.4,0,14.3,3.3,14.3,13.8h-8.8
		c-6.6,0-14.9,0.6-20.9,3.9c-6.1,3.3-10.5,8.3-10.5,17.6c0,12.1,11,18.7,22.1,18.7c7.2,0,15.4-3.9,19.3-11c0,2.2,0,6.1,0.6,9.4h14.3
		c-0.6-5-0.6-9.4-0.6-13.8v-24.3c0-18.7-7.7-26.5-27-26.5c-7.2,0-15.4,1.7-22.1,5L1504.2,129.9L1504.2,129.9z M1561,101.2h16.5V85.8
		H1561V101.2z M1561,175.1h16.5v-62.8H1561V175.1z M1585.2,175.1h16.5v-30.3l20.9,30.3h20.9l-26.5-34.7l23.7-27.6h-19.3l-19.8,24.8
		V84.1h-16.5L1585.2,175.1z"/>
	<path class="st3" d="M1654.1,142.5c0-9.4,5-18.7,16-18.7c10.5,0,16,8.8,16,18.7c0,10.5-3.3,21.5-16,21.5S1654.1,153,1654.1,142.5z
		 M1637,144.2c0,18.2,12.1,32.5,32.5,32.5c20.9,0,33.1-14.3,33.1-32.5c0-20.9-14.3-33.1-33.1-33.1
		C1651.4,111.1,1637,123.8,1637,144.2z M1732.4,175.1h17.1v-36.9h28.7v-13.2h-28.7v-21.5h29.8V90.2h-46.9V175.1z M1801.3,142.5
		c0-9.4,5-18.7,16-18.7c10.5,0,16,8.8,16,18.7c0,10.5-3.3,21.5-16,21.5S1801.3,153,1801.3,142.5z M1784.2,144.2
		c0,18.2,12.1,32.5,32.5,32.5c20.9,0,33.1-14.3,33.1-32.5c0-20.9-14.3-33.1-33.1-33.1S1784.2,123.8,1784.2,144.2z M1856.4,175.1
		h16.5v-22.6c0-8.8,0-25.4,13.2-25.4c2.8,0,6.1,0.6,7.2,1.1v-16.5c-1.7-0.6-3.3-0.6-5-0.6c-9.9,0-16.5,9.9-17.1,16v-14.3h-14.9
		V175.1L1856.4,175.1z M1959,112.8h-16.5v30.9c0,8.3-2.8,20.9-14.3,20.9c-10.5,0-10.5-10.5-10.5-18.2v-33.6h-16.5v39.7
		c0,14.3,6.6,24.8,21.5,24.8c8.3,0,15.4-3.9,20.4-9.9v8.8h15.4v-63.4H1959z M1294.2,535h17.1v-37.5h29.2v-13.2h-29.2v-20.9h30.3
		v-13.8h-47.4V535z M1363.1,502c0-9.4,5-18.7,16-18.7c10.5,0,16,8.8,16,18.7c0,10.5-3.3,21.5-16,21.5S1363.1,512.4,1363.1,502z
		 M1346,503.6c0,18.2,12.1,32.5,32.5,32.5c20.9,0,33.1-14.3,33.1-32.5c0-20.9-14.3-33.1-33.1-33.1
		C1360.3,470.5,1346,483.2,1346,503.6z M1417.1,535h16.5v-23.2c0-8.8,0-25.4,13.2-25.4c2.8,0,6.1,0.6,7.2,1.1v-16.5
		c-1.7-0.6-3.3-0.6-5-0.6c-9.9,0-16.5,9.9-17.1,16v-14.3h-14.3V535H1417.1z M1471.1,516.8c0-9.4,11-11,18.2-11h7.2
		c0,5-0.6,9.4-3.3,12.7s-6.6,5.5-11.6,5.5C1475.5,524.6,1471.1,521.8,1471.1,516.8L1471.1,516.8z M1462.8,489.3
		c5.5-4.4,12.7-6.6,19.3-6.6c9.4,0,14.3,3.3,14.3,13.8h-9.4c-6.6,0-14.9,0.6-20.9,3.9c-6.1,3.3-10.5,8.3-10.5,18.2
		c0,12.1,11,18.7,22.1,18.7c7.2,0,15.4-3.9,19.3-11c0,2.2,0,6.1,0.6,9.4h14.3c-0.6-5-0.6-9.4-0.6-13.8v-23.7
		c0-18.7-7.7-26.5-27-26.5c-7.2,0-15.4,1.7-22.1,5L1462.8,489.3L1462.8,489.3z M1518.5,443.5h16.5V535h-16.5V443.5z M1610.6,535h16
		v-91.5H1610v35.8c-5-6.1-10.5-8.8-18.7-8.8c-19.3,0-26.5,15.4-26.5,32.5c0,17.1,7.2,33.1,26.5,33.1c7.7,0,14.3-2.2,19.3-8.3V535
		L1610.6,535z M1581.4,503.1c0-8.3,2.8-19.8,13.8-19.8c10.5,0,14.9,11,14.9,19.8c0,8.8-3.3,20.4-14.3,20.4
		C1584.7,523.5,1581.4,511.9,1581.4,503.1z M1686.1,516.8c-6.1,3.3-12.7,6.6-20.9,6.6c-9.9,0-17.1-5.5-18.2-16h43.6
		c0-22.1-6.6-38-29.8-38c-19.3,0-29.2,14.9-29.2,33.1c0,20.4,12.1,32.5,32.5,32.5c8.8,0,15.4-1.7,21.5-5v-13.2L1686.1,516.8z
		 M1647.5,496.5c0.6-8.3,5.5-14.9,14.3-14.9c9.4,0,12.7,6.6,13.2,14.9H1647.5z M1719.7,535h29.8c10.5,0,29.8-3.3,29.8-24.8
		c0-10.5-7.7-18.2-19.3-19.3c9.9-1.7,17.1-8.8,17.1-19.3c0-18.7-16.5-22.1-27.6-22.1h-29.8V535z M1736.8,463.4h6.6
		c7.7,0,16.5,0.6,16.5,10.5c0,8.8-8.8,10.5-16,10.5h-7.2L1736.8,463.4L1736.8,463.4z M1736.8,497h8.3c8.3,0,17.6,1.7,17.6,12.7
		c0,9.9-9.4,11.6-17.6,11.6h-8.3V497L1736.8,497z M1784.8,460.6h16.5v-15.4h-16.5V460.6z M1784.8,535h16.5v-62.8h-16.5V535z
		 M1809.6,484.9h30.3l-32,36.9V535h52.4v-12.7h-32.5l31.4-36.9v-13.2h-49.6L1809.6,484.9z M1867.5,535h16v-30.9h0.6L1905,535h20.4
		l-25.9-34.7l23.2-28.1h-19.3L1884,497h-0.6v-53.5h-16V535z"/>
	<path class="st3" d="M1936.9,516.8c0-9.4,11-11,18.2-11h7.2c0,5-0.6,9.4-3.3,12.7s-6.6,5.5-11.6,5.5
		C1941.3,524.6,1936.9,521.8,1936.9,516.8L1936.9,516.8z"/>
	<path class="st3" d="M1928.7,489.3c5.5-4.4,12.7-6.6,19.3-6.6c9.4,0,14.3,3.3,14.3,13.8h-8.8c-6.6,0-14.9,0.6-20.9,3.9
		c-6.1,3.3-10.5,8.3-10.5,18.2c0,12.1,11,18.7,22.1,18.7c7.2,0,15.4-3.9,19.3-11c0,2.2,0,6.1,0.6,9.4h14.3c-0.6-5-0.6-9.4-0.6-13.8
		v-23.7c0-18.7-7.7-26.5-27-26.5c-7.2,0-15.4,1.7-22.1,5L1928.7,489.3L1928.7,489.3z"/>
	<rect x="1984.9" y="445.2" class="st3" width="16.5" height="15.4"/>
	<rect x="1984.9" y="472.2" class="st3" width="16.5" height="62.8"/>
	<path class="st3" d="M2021.3,516.8c0-9.4,11-11,18.2-11h7.2c0,5-0.6,9.4-3.3,12.7s-6.6,5.5-11.6,5.5
		C2025.7,524.6,2021.3,521.8,2021.3,516.8L2021.3,516.8z"/>
	<path class="st3" d="M2013,489.3c5.5-4.4,12.7-6.6,19.3-6.6c9.4,0,14.3,3.3,14.3,13.8h-8.8c-6.6,0-14.9,0.6-20.9,3.9
		c-6.1,3.3-10.5,8.3-10.5,18.2c0,12.1,11,18.7,22.1,18.7c7.7,0,15.4-3.9,19.3-11c0,2.2,0,6.1,0.6,9.4h14.3c-0.6-5-0.6-9.4-0.6-13.8
		v-23.7c0-18.7-7.7-26.5-27-26.5c-7.2,0-15.4,1.7-22.1,5L2013,489.3L2013,489.3z"/>
	<path class="st3" d="M1311.2,357h9.4c14.3,0,28.1,10.5,28.1,29.2s-13.8,29.2-28.1,29.2h-9.4V357z"/>
	<path class="st3" d="M1294.2,428.6h23.2c25.9,0,49.1-8.8,49.1-42.4s-23.2-42.4-49.1-42.4h-23.2V428.6z"/>
	<rect x="1371.9" y="338.8" class="st3" width="16.5" height="15.4"/>
	<rect x="1371.9" y="365.8" class="st3" width="16.5" height="62.8"/>
	<path class="st3" d="M1427.6,377.4c10.5,0,13.8,11.6,13.8,19.8c0,8.8-3.3,20.4-13.8,20.4c-11,0-14.3-11.6-14.3-20.4
		C1413.2,388.4,1417.1,377.4,1427.6,377.4z"/>
	<path class="st3" d="M1396.7,454.6h16.5V422c5.5,7.2,11.6,8.8,18.2,8.8c19.8,0,26.5-16,26.5-33.1c0-17.1-7.2-32.5-26.5-32.5
		c-9.4,0-16,4.4-19.3,10.5v-8.8h-15.4V454.6z"/>
	<path class="st3" d="M1521.3,365.8h-16.5v30.9c0,8.3-2.8,20.9-14.3,20.9c-10.5,0-10.5-10.5-10.5-18.2v-33.6h-16.5v39.7
		c0,14.3,6.6,24.8,21.5,24.8c8.3,0,15.4-3.9,20.4-9.9v8.3h15.4v-62.8H1521.3z"/>
	<path class="st3" d="M1538.9,409.9c0,12.7,7.2,20.4,19.8,20.4c5,0,8.8-0.6,12.1-1.7l-0.6-12.7c-1.7,1.1-4.4,1.7-7.7,1.7
		c-6.1,0-7.7-5-7.7-10.5v-29.2h14.3v-12.1h-14.3v-17.6l-16.5,5.5v12.7h-12.1v12.1h12.1v31.4H1538.9z"/>
	<path class="st3" d="M1589.1,410.5c0-9.4,11-11,18.2-11h7.2c0,5-0.6,9.4-3.3,12.7s-6.6,5.5-11.6,5.5
		C1593.5,418.2,1589.1,416,1589.1,410.5L1589.1,410.5z"/>
	<path class="st3" d="M1580.8,383.4c5.5-4.4,12.7-6.6,19.3-6.6c9.4,0,14.3,3.3,14.3,13.8h-8.8c-6.6,0-14.9,0.6-20.9,3.9
		c-6.1,3.3-10.5,8.3-10.5,18.2c0,12.1,11,18.7,22.1,18.7c7.2,0,15.4-3.9,19.3-11c0,2.2,0,6.1,0.6,9.4h14.3c-0.6-5-0.6-9.4-0.6-13.8
		v-24.3c0-18.7-7.7-26.5-27-26.5c-7.2,0-15.4,1.7-22.1,5L1580.8,383.4L1580.8,383.4z"/>
	<path class="st3" d="M1681.1,366.4c-4.4-1.1-9.4-2.2-16-2.2c-19.8,0-30.3,14.3-30.3,32.5c0,19.3,10.5,33.1,30.9,33.1
		c6.6,0,11.6-0.6,16.5-2.2l-0.6-13.8c-2.8,1.1-7.7,2.8-12.7,2.8c-11.6,0-17.1-8.8-17.1-20.4c0-11.6,6.6-19.8,16.5-19.8
		c5,0,8.3,1.1,11,2.2L1681.1,366.4z"/>
	<rect x="1689.4" y="338.8" class="st3" width="16.5" height="15.4"/>
	<rect x="1689.4" y="365.8" class="st3" width="16.5" height="62.8"/>
	<path class="st3" d="M1728,395.6c0-9.4,5-18.7,16-18.7c10.5,0,16,8.8,16,18.7c0,10.5-3.3,21.5-16,21.5
		C1731.3,417.6,1728,406,1728,395.6z"/>
	<path class="st3" d="M1710.9,397.8c0,18.2,12.1,32.5,32.5,32.5c20.9,0,33.1-14.3,33.1-32.5c0-20.9-14.3-33.1-33.1-33.1
		C1725.2,364.7,1710.9,376.8,1710.9,397.8z"/>
	<polygon class="st3" points="1734.6,357.5 1744.5,357.5 1761.1,339.9 1744.5,339.9 	"/>
	<path class="st3" d="M1781.5,428.6h16.5v-30.9c0-8.3,2.8-20.9,14.3-20.9c10.5,0,10.5,10.5,10.5,18.2v33.6h16.5V389
		c0-14.3-6.6-24.8-21.5-24.8c-8.8,0-15.4,2.8-20.4,9.9v-8.8H1782v63.4H1781.5z"/>
</g>
</svg>
